<svg id="invinsence_logo_white" xmlns="http://www.w3.org/2000/svg" width="729.115" height="148.6" viewBox="0 0 729.115 148.6">
  <g id="Group_4945" transform="translate(0.011 0.1)">
    <g id="Group_4940">
      <g id="Group_4937">
        <g id="Group_4936">
          <path id="Path_4759" d="M0,66.6V5.2A4.314,4.314,0,0,1,1.4,2,4.48,4.48,0,0,1,4.6.6h9.2A4.762,4.762,0,0,1,17.2,2a4.377,4.377,0,0,1,1.3,3.2V66.4a4.314,4.314,0,0,1-1.4,3.2,4.377,4.377,0,0,1-3.2,1.3H4.7a4.224,4.224,0,0,1-3.2-1.3A3.332,3.332,0,0,1,0,66.6Z" fill="#fff"/>
          <path id="Path_4760" d="M32.6,66.4V5.2A4.224,4.224,0,0,1,33.9,2,4.314,4.314,0,0,1,37.1.6H51.5A6.677,6.677,0,0,1,55.1,2a13.431,13.431,0,0,1,3.1,3.2L88.1,51V5.1A4.316,4.316,0,0,1,92.4.6H101a4.224,4.224,0,0,1,3.2,1.3,4.675,4.675,0,0,1,1.3,3.4V66.5a4.316,4.316,0,0,1-4.3,4.5H84.9A6.758,6.758,0,0,1,81,69.7a12.167,12.167,0,0,1-3.2-3.2L50.6,24.3V66.5A4.316,4.316,0,0,1,46.3,71H37.5a4.224,4.224,0,0,1-3.2-1.3A3.9,3.9,0,0,1,32.6,66.4Z" fill="#fff"/>
          <path id="Path_4761" d="M223.8,66.6V5.2A4.314,4.314,0,0,1,225.2,2,4.48,4.48,0,0,1,228.4.6h9.2A4.762,4.762,0,0,1,241,2a4.377,4.377,0,0,1,1.3,3.2V66.4a4.314,4.314,0,0,1-1.4,3.2,4.377,4.377,0,0,1-3.2,1.3h-9.2a4.224,4.224,0,0,1-3.2-1.3A3.564,3.564,0,0,1,223.8,66.6Z" fill="#fff"/>
          <path id="Path_4762" d="M256.6,66.4V5.2A4.224,4.224,0,0,1,257.9,2,4.314,4.314,0,0,1,261.1.6h14.4A6.677,6.677,0,0,1,279.1,2a13.431,13.431,0,0,1,3.1,3.2L312.1,51V5.1A4.316,4.316,0,0,1,316.4.6h8.7a4.224,4.224,0,0,1,3.2,1.3,4.675,4.675,0,0,1,1.3,3.4V66.5a4.316,4.316,0,0,1-4.3,4.5H308.7a6.758,6.758,0,0,1-3.9-1.3,12.168,12.168,0,0,1-3.2-3.2L274.4,24.3V66.5a4.316,4.316,0,0,1-4.3,4.5h-8.8a4.224,4.224,0,0,1-3.2-1.3A3.614,3.614,0,0,1,256.6,66.4Z" fill="#fff"/>
          <path id="Path_4763" d="M339.9,53a4.885,4.885,0,0,1,1.7-4.2,5.946,5.946,0,0,1,3.4-1.3h5.8c3,0,5.2,1.6,6.8,4.8s4.9,4.8,10.4,4.8l17.3.4c5.7,0,8.6-1.9,8.6-5.7,0-2.9-3.5-5.1-10.5-6.8-3.1-.8-6.6-1.4-10.4-2.2s-7.5-1.7-11.3-2.9A100.463,100.463,0,0,1,351.3,36a23.188,23.188,0,0,1-7.7-6.2,15.077,15.077,0,0,1-3-9.4c0-6.6,2.3-11.7,7-15.2,4.7-3.6,12.7-5.3,24.2-5.3l12.5.3a32.665,32.665,0,0,1,18.2,5.2c5.5,3.4,8.1,7.8,8.1,13a4.885,4.885,0,0,1-1.7,4.2,6.418,6.418,0,0,1-3.2,1.3h-5.8c-3,0-5.2-1.6-6.8-4.8s-4.9-4.8-10.4-4.8l-15-.3c-5.7,0-8.6,2-8.6,5.7,0,2.1,1.8,3.8,5.5,5.1a86.455,86.455,0,0,0,13.3,3.4q7.8,1.5,15.6,3.6a35.672,35.672,0,0,1,13.4,6.9,15.868,15.868,0,0,1,5.5,12.1c0,6.6-2.3,11.7-7,15.2-4.7,3.6-12.7,5.3-24.2,5.3L366.3,71a32.665,32.665,0,0,1-18.2-5.2C342.6,62.5,339.9,58.2,339.9,53Z" fill="#fff"/>
          <path id="Path_4764" d="M422.4,66.4V5.1a4.314,4.314,0,0,1,1.4-3.2A4.377,4.377,0,0,1,427,.6h56.7A4.314,4.314,0,0,1,486.9,2a4.377,4.377,0,0,1,1.3,3.2V9.9a4.316,4.316,0,0,1-4.3,4.5H440.8V28.7h36.9a4.316,4.316,0,0,1,4.5,4.3v5a4.316,4.316,0,0,1-4.3,4.5H440.8V57.1h42.8a4.316,4.316,0,0,1,4.5,4.3v4.9a4.314,4.314,0,0,1-1.4,3.2,4.377,4.377,0,0,1-3.2,1.3H427a4.224,4.224,0,0,1-3.2-1.3A3.418,3.418,0,0,1,422.4,66.4Z" fill="#fff"/>
          <path id="Path_4765" d="M497.4,66.4V5.2A4.224,4.224,0,0,1,498.7,2,4.314,4.314,0,0,1,501.9.6h14.4A6.677,6.677,0,0,1,519.9,2,13.43,13.43,0,0,1,523,5.2L552.9,51V5.1A4.316,4.316,0,0,1,557.2.6h8.6A4.224,4.224,0,0,1,569,1.9a4.675,4.675,0,0,1,1.3,3.4V66.5A4.316,4.316,0,0,1,566,71H549.4a6.758,6.758,0,0,1-3.9-1.3,12.168,12.168,0,0,1-3.2-3.2L515.1,24.3V66.5a4.316,4.316,0,0,1-4.3,4.5H502a4.224,4.224,0,0,1-3.2-1.3A4.374,4.374,0,0,1,497.4,66.4Z" fill="#fff"/>
          <path id="Path_4766" d="M580.9,53a4.885,4.885,0,0,1,1.7-4.2,5.946,5.946,0,0,1,3.4-1.3h5.8c3,0,5.2,1.6,6.8,4.8s4.9,4.8,10.4,4.8l17.3.5c5.7,0,8.6-1.9,8.6-5.7,0-2.9-3.5-5.1-10.5-6.8-3.1-.8-6.6-1.4-10.4-2.2s-7.5-1.7-11.3-2.9a100.466,100.466,0,0,1-10.4-3.9,23.188,23.188,0,0,1-7.7-6.2,15.077,15.077,0,0,1-3-9.4c0-6.6,2.3-11.7,7-15.2C593.3,1.7,601.3,0,612.8,0l12.5.3a32.665,32.665,0,0,1,18.2,5.2c5.5,3.4,8.1,7.8,8.1,13a4.885,4.885,0,0,1-1.7,4.2,6.418,6.418,0,0,1-3.2,1.3h-6c-3,0-5.2-1.6-6.8-4.8s-4.9-4.8-10.4-4.8l-14.8-.3c-5.7,0-8.6,1.9-8.6,5.7,0,2.1,1.8,3.8,5.5,5.1a86.455,86.455,0,0,0,13.3,3.4q7.8,1.5,15.6,3.6a35.672,35.672,0,0,1,13.4,6.9,15.868,15.868,0,0,1,5.5,12.1c0,6.6-2.3,11.7-7,15.2-4.7,3.6-12.7,5.3-24.2,5.3L607,71.2A32.665,32.665,0,0,1,588.8,66C583.5,62.5,580.9,58.2,580.9,53Z" fill="#fff"/>
          <path id="Path_4767" d="M663.3,66.4V5.1a4.314,4.314,0,0,1,1.4-3.2A4.377,4.377,0,0,1,667.9.6h56.7A4.314,4.314,0,0,1,727.8,2a4.377,4.377,0,0,1,1.3,3.2V9.9a4.316,4.316,0,0,1-4.3,4.5H681.7V28.7h36.9a4.316,4.316,0,0,1,4.5,4.3v5a4.316,4.316,0,0,1-4.3,4.5H681.7V57.1h42.8a4.316,4.316,0,0,1,4.5,4.3v4.9a4.314,4.314,0,0,1-1.4,3.2,4.377,4.377,0,0,1-3.2,1.3H667.9a4.224,4.224,0,0,1-3.2-1.3A3.786,3.786,0,0,1,663.3,66.4Z" fill="#fff"/>
          <g id="Group_4935" transform="translate(112.045 0.391)">
            <path id="Path_4768" d="M53.3,24.2,35,0,53.3,24.3Z" fill="none"/>
            <path id="Path_4769" d="M53.3,24.3,35,0H0L53.3,71,70.8,47.3,53.3,24.2Z" fill="#229022"/>
            <path id="Path_4770" d="M71.4,0,53.3,24.2,70.8,47.3,106.5,0Z" fill="#0a7533"/>
            <path id="Path_4771" d="M56.2,20.4l-2.9,3.8L70.8,47.3l3.4-4.4Z" fill="#030" opacity="0.5"/>
          </g>
        </g>
      </g>
      <g id="Group_4939" transform="translate(127.253 71.491)">
        <path id="Path_4772" d="M38.1,23.3a5.8,5.8,0,0,0-5.8,5.8h0v5.7H44V29.1a5.89,5.89,0,0,0-5.9-5.8Z" fill="#0cb04a"/>
        <path id="Path_4773" d="M38.1,0A38.1,38.1,0,1,0,76.2,38.1h0A38.09,38.09,0,0,0,38.1,0ZM54.6,54.1a4.268,4.268,0,0,1-4.3,4.3H25.9a4.268,4.268,0,0,1-4.3-4.3V39.4a4.268,4.268,0,0,1,4.3-4.3h.7V29.4a11.6,11.6,0,1,1,23.2,0v5.7h.6a4.142,4.142,0,0,1,4.3,4v.3l-.1,14.7Z" fill="#0cb04a"/>
        <g id="Group_4938" transform="translate(33.795 39.125)">
          <path id="Path_4774" d="M.1,3.5C0,3.4,0,3.3,0,3.1a.664.664,0,0,1,.4-.5L2.9.5A2.389,2.389,0,0,1,4.3,0H5.7a.9.9,0,0,1,.9.9h0V13.4a1.08,1.08,0,0,1-.3.7c-.3.1-.4.3-.7.3H3.9a.9.9,0,0,1-.9-.9H3V3.6l-1.2.9c-.1.2-.2.2-.5.2-.1,0-.3-.2-.4-.3Z" fill="#0cb04a"/>
        </g>
      </g>
    </g>
  </g>
  <g id="Group_5021" data-name="Group 5021" transform="translate(0.011 0.1)">
    <path id="Path_4964" data-name="Path 4964" d="M268,139.5l-.9-4.9c0-.1,0-.1-.1-.1h-7.4l-.1.1-.9,4.9c0,.3-.2.4-.5.4h-3.3c-.1,0-.3,0-.3-.1a.367.367,0,0,1-.1-.3l6.4-29.2c.1-.3.2-.4.5-.4h3.8c.3,0,.4.1.5.4l6.5,29.2v.1c0,.3-.1.4-.4.4h-3.4A.623.623,0,0,1,268,139.5Zm-7.5-8.4h5.7c.1,0,.1-.1.1-.2l-2.9-15.3a.1.1,0,0,0-.2,0l-2.9,15.3C260.3,131.1,260.4,131.1,260.5,131.1Z" fill="#fff"/>
    <path id="Path_4965" data-name="Path 4965" d="M282.9,121h-3a.215.215,0,0,0-.2.2v12.1a3.845,3.845,0,0,0,.6,2.4,2.2,2.2,0,0,0,1.9.6h.4c.3,0,.4.1.4.4v2.8c0,.3-.1.4-.4.4h-1.3a6.684,6.684,0,0,1-4.1-1.1c-.9-.7-1.4-2.1-1.4-4.1V121.2a.215.215,0,0,0-.2-.2h-1.7c-.3,0-.4-.1-.4-.4v-2.2c0-.3.1-.4.4-.4h1.7a.215.215,0,0,0,.2-.2V113c0-.3.1-.4.4-.4h3.1c.3,0,.4.1.4.4v4.9a.215.215,0,0,0,.2.2h3c.3,0,.4.1.4.4v2.2C283.4,120.9,283.2,121,282.9,121Z" fill="#fff"/>
    <path id="Path_4966" data-name="Path 4966" d="M294.8,121h-3a.215.215,0,0,0-.2.2v12.1a3.845,3.845,0,0,0,.6,2.4,2.2,2.2,0,0,0,1.9.6h.4c.3,0,.4.1.4.4v2.8c0,.3-.1.4-.4.4h-1.3a6.684,6.684,0,0,1-4.1-1.1c-.9-.7-1.4-2.1-1.4-4.1V121.2a.215.215,0,0,0-.2-.2h-1.7c-.3,0-.4-.1-.4-.4v-2.2c0-.3.1-.4.4-.4h1.7a.215.215,0,0,0,.2-.2V113c0-.3.1-.4.4-.4h3.1c.3,0,.4.1.4.4v4.9a.215.215,0,0,0,.2.2h3c.3,0,.4.1.4.4v2.2C295.2,120.9,295,121,294.8,121Z" fill="#fff"/>
    <path id="Path_4967" data-name="Path 4967" d="M310.7,119.6a7.168,7.168,0,0,1,2,5.2v14.6c0,.3-.1.4-.4.4H309c-.3,0-.4-.1-.4-.4v-.9c0-.1,0-.1-.1-.1h-.2a5.446,5.446,0,0,1-4.4,1.8,7.14,7.14,0,0,1-4.3-1.4c-1.2-.9-1.9-2.6-1.9-5a6.6,6.6,0,0,1,2.3-5.5,9.189,9.189,0,0,1,5.9-1.7h2.5a.215.215,0,0,0,.2-.2v-1.2a4.375,4.375,0,0,0-.9-2.9,2.8,2.8,0,0,0-2.2-1.1,2.41,2.41,0,0,0-1.8.7,3.1,3.1,0,0,0-.9,1.9c0,.3-.1.4-.4.4h-3.5c-.3,0-.4-.1-.4-.4a6.485,6.485,0,0,1,2.2-4.5,7.481,7.481,0,0,1,4.9-1.7A7.735,7.735,0,0,1,310.7,119.6Zm-3.3,16.1a3.387,3.387,0,0,0,1.1-2.7v-2.9a.215.215,0,0,0-.2-.2h-2.6a4.277,4.277,0,0,0-2.8.9,3.337,3.337,0,0,0-1,2.7,3.2,3.2,0,0,0,.8,2.3,2.865,2.865,0,0,0,2.1.8A3.916,3.916,0,0,0,307.4,135.7Z" fill="#fff"/>
    <path id="Path_4968" data-name="Path 4968" d="M318.3,138.4a6.547,6.547,0,0,1-2-5v-8.9a6.475,6.475,0,0,1,2-4.9,7.185,7.185,0,0,1,5.3-1.9,8.873,8.873,0,0,1,3.8.8,6.194,6.194,0,0,1,2.5,2.3,5.949,5.949,0,0,1,.9,3.2v.6c0,.3-.1.4-.4.4l-3.3.1c-.3,0-.4-.1-.4-.4v-.4a2.878,2.878,0,0,0-.9-2.1,2.94,2.94,0,0,0-2.2-.9,2.574,2.574,0,0,0-2.2,1,3.656,3.656,0,0,0-.9,2.5v8.4a3.486,3.486,0,0,0,.9,2.5,2.7,2.7,0,0,0,2.2,1,3.073,3.073,0,0,0,3.1-3.1v-.4c0-.3.1-.4.4-.4h3.3c.3,0,.4.1.4.4v.6a5.974,5.974,0,0,1-2,4.6,7.566,7.566,0,0,1-5.3,1.8A7.477,7.477,0,0,1,318.3,138.4Z" fill="#fff"/>
    <path id="Path_4969" data-name="Path 4969" d="M334.5,139.5V110.3c0-.3.1-.4.4-.4h3.3c.3,0,.4.1.4.4v16.3c0,.1,0,.1.1.2.1,0,.1,0,.1-.1l5.5-8.3a.55.55,0,0,1,.5-.3h3.4c.2,0,.3,0,.3.2.1.1,0,.2,0,.4l-4.4,6.5a.187.187,0,0,0,0,.3l5.2,14.1v.2c0,.2-.1.3-.4.3h-3.4a.462.462,0,0,1-.5-.3L341.6,129q0-.3-.3,0l-2.6,3.7c-.1.1-.1.1-.1.2v6.8c0,.3-.1.4-.4.4h-3.3A.723.723,0,0,1,334.5,139.5Z" fill="#fff"/>
    <path id="Path_4970" data-name="Path 4970" d="M360.4,121h-3a.215.215,0,0,0-.2.2v12.1a3.845,3.845,0,0,0,.6,2.4,2.2,2.2,0,0,0,1.9.6h.4c.3,0,.4.1.4.4v2.8c0,.3-.1.4-.4.4h-1.3a6.684,6.684,0,0,1-4.1-1.1c-.9-.7-1.4-2.1-1.4-4.1V121.2a.215.215,0,0,0-.2-.2h-1.7c-.3,0-.4-.1-.4-.4v-2.2c0-.3.1-.4.4-.4h1.7a.215.215,0,0,0,.2-.2V113c0-.3.1-.4.4-.4h3.1c.3,0,.4.1.4.4v4.9a.215.215,0,0,0,.2.2h3c.3,0,.4.1.4.4v2.2C360.8,120.9,360.7,121,360.4,121Z" fill="#fff"/>
    <path id="Path_4971" data-name="Path 4971" d="M364.4,113.8a2.9,2.9,0,1,1,2,.8A2.792,2.792,0,0,1,364.4,113.8Zm-.1,25.7v-21c0-.3.1-.4.4-.4H368c.3,0,.4.1.4.4v21c0,.3-.1.4-.4.4h-3.3A.43.43,0,0,1,364.3,139.5Z" fill="#fff"/>
    <path id="Path_4972" data-name="Path 4972" d="M374.8,138.4a6.547,6.547,0,0,1-2-5v-8.9a6.475,6.475,0,0,1,2-4.9,7.185,7.185,0,0,1,5.3-1.9,8.873,8.873,0,0,1,3.8.8,5.577,5.577,0,0,1,2.5,2.3,5.949,5.949,0,0,1,.9,3.2v.6c0,.3-.1.4-.4.4l-3.3.1c-.3,0-.4-.1-.4-.4v-.4a2.878,2.878,0,0,0-.9-2.1,2.94,2.94,0,0,0-2.2-.9,2.574,2.574,0,0,0-2.2,1,3.656,3.656,0,0,0-.9,2.5v8.4a3.486,3.486,0,0,0,.9,2.5,2.7,2.7,0,0,0,2.2,1,3.073,3.073,0,0,0,3.1-3.1v-.4c0-.3.1-.4.4-.4h3.3c.3,0,.4.1.4.4v.6a5.974,5.974,0,0,1-2,4.6,7.566,7.566,0,0,1-5.3,1.8A7.309,7.309,0,0,1,374.8,138.4Z" fill="#fff"/>
    <path id="Path_4973" data-name="Path 4973" d="M403.1,119.6a7.168,7.168,0,0,1,2,5.2v14.6c0,.3-.1.4-.4.4h-3.3c-.3,0-.4-.1-.4-.4v-.9c0-.1,0-.1-.1-.1h-.2a5.446,5.446,0,0,1-4.4,1.8,7.14,7.14,0,0,1-4.3-1.4c-1.2-.9-1.9-2.6-1.9-5a6.6,6.6,0,0,1,2.3-5.5,9.189,9.189,0,0,1,5.9-1.7h2.5a.215.215,0,0,0,.2-.2v-1.2a4.375,4.375,0,0,0-.9-2.9,2.8,2.8,0,0,0-2.2-1.1,2.41,2.41,0,0,0-1.8.7,3.1,3.1,0,0,0-.9,1.9c0,.3-.1.4-.4.4h-3.5c-.3,0-.4-.1-.4-.4a6.485,6.485,0,0,1,2.2-4.5,7.481,7.481,0,0,1,4.9-1.7A7.351,7.351,0,0,1,403.1,119.6Zm-3.2,16.1A3.387,3.387,0,0,0,401,133v-2.9a.215.215,0,0,0-.2-.2h-2.6a4.277,4.277,0,0,0-2.8.9,3.337,3.337,0,0,0-1,2.7,3.2,3.2,0,0,0,.8,2.3,2.865,2.865,0,0,0,2.1.8A3.916,3.916,0,0,0,399.9,135.7Z" fill="#fff"/>
    <path id="Path_4974" data-name="Path 4974" d="M409.1,139.5V110.3c0-.3.1-.4.4-.4h3.3c.3,0,.4.1.4.4v29.2c0,.3-.1.4-.4.4h-3.3A.366.366,0,0,1,409.1,139.5Z" fill="#fff"/>
    <path id="Path_4975" data-name="Path 4975" d="M428,138.1a7.7,7.7,0,0,1-2.1-5.7V117.1a7.465,7.465,0,0,1,2.1-5.6,7.621,7.621,0,0,1,5.6-2.1,8.025,8.025,0,0,1,5.7,2.1,7.621,7.621,0,0,1,2.1,5.6v.7c0,.3-.1.4-.4.4l-3.3.2c-.3,0-.4-.1-.4-.4v-1.1a3.705,3.705,0,0,0-1-2.8,3.631,3.631,0,0,0-2.6-1.1,3.315,3.315,0,0,0-2.6,1.1,3.857,3.857,0,0,0-1,2.8v15.8a3.7,3.7,0,0,0,1,2.8,3.467,3.467,0,0,0,2.6,1.1,3.315,3.315,0,0,0,2.6-1.1,3.857,3.857,0,0,0,1-2.8v-1.1c0-.3.1-.4.4-.4l3.3.2c.3,0,.4.1.4.4v.6a7.861,7.861,0,0,1-2.1,5.7,7.327,7.327,0,0,1-5.7,2.1A7.621,7.621,0,0,1,428,138.1Z" fill="#fff"/>
    <path id="Path_4976" data-name="Path 4976" d="M444.7,148.3a.367.367,0,0,1-.1-.3v-2.5c0-.3.1-.4.4-.4a6.652,6.652,0,0,0,2.2-.4,2.811,2.811,0,0,0,1.3-1.5,13.659,13.659,0,0,0,.8-3.1v-.2l-5.5-21.3v-.1c0-.2.1-.3.4-.3h3.5c.3,0,.4.1.5.4l3.1,15.5a.1.1,0,1,0,.2,0l3.1-15.5c.1-.3.2-.4.5-.4h3.6c.1,0,.3,0,.3.1a.187.187,0,0,1,0,.3l-5.9,22.9a20.963,20.963,0,0,1-1.6,4.4,4.112,4.112,0,0,1-2.3,2,11.089,11.089,0,0,1-4.1.6h-.2Z" fill="#fff"/>
    <path id="Path_4977" data-name="Path 4977" d="M474.7,119.5a7.161,7.161,0,0,1,1.6,5v8.9a7.113,7.113,0,0,1-1.7,4.9,5.871,5.871,0,0,1-4.5,1.9,5.223,5.223,0,0,1-2.1-.4,5.537,5.537,0,0,1-1.9-1.2c-.1-.1-.1-.1-.2,0l-.1.1v.7c0,.3-.1.4-.4.4h-3.3c-.3,0-.4-.1-.4-.4V110.2c0-.3.1-.4.4-.4h3.3c.3,0,.4.1.4.4v8.9c0,.1,0,.1.1.1s.1,0,.2-.1a5.606,5.606,0,0,1,3.9-1.5A6.372,6.372,0,0,1,474.7,119.5Zm-3.3,2.7a2.765,2.765,0,0,0-2.3-1,2.7,2.7,0,0,0-2.2,1,3.656,3.656,0,0,0-.9,2.5v8.4a3.486,3.486,0,0,0,.9,2.5,3.029,3.029,0,0,0,2.2,1,2.9,2.9,0,0,0,2.3-1,3.656,3.656,0,0,0,.9-2.5v-8.4A3.656,3.656,0,0,0,471.4,122.2Z" fill="#fff"/>
    <path id="Path_4978" data-name="Path 4978" d="M494.1,130.6h-9.7a.215.215,0,0,0-.2.2v2.3a3.486,3.486,0,0,0,.9,2.5,3.045,3.045,0,0,0,4.2.3,3.2,3.2,0,0,0,1-1.9.462.462,0,0,1,.5-.3l3.2.2c.1,0,.3,0,.3.1a.367.367,0,0,1,.1.3,6.576,6.576,0,0,1-2.1,4.4,7.675,7.675,0,0,1-5,1.6,7.566,7.566,0,0,1-5.3-1.8,6.475,6.475,0,0,1-2-4.9v-8.9a6.475,6.475,0,0,1,2-4.9,8.342,8.342,0,0,1,10.6,0,6.555,6.555,0,0,1,1.9,4.9v5.7C494.5,130.5,494.4,130.6,494.1,130.6Zm-9-8.4a3.656,3.656,0,0,0-.9,2.5V127a.215.215,0,0,0,.2.2h5.9a.215.215,0,0,0,.2-.2v-2.3a3.486,3.486,0,0,0-.9-2.5,3.083,3.083,0,0,0-2.3-1A3.029,3.029,0,0,0,485.1,122.2Z" fill="#fff"/>
    <path id="Path_4979" data-name="Path 4979" d="M508.6,118.3a.445.445,0,0,1,.2.6l-.6,3.3c0,.3-.2.3-.5.3a5.019,5.019,0,0,0-1.2-.2,2.814,2.814,0,0,0-.8.1,3,3,0,0,0-2.2,1.5,5.71,5.71,0,0,0-.9,3.2v12.6c0,.3-.1.4-.4.4h-3.3c-.3,0-.4-.1-.4-.4v-21c0-.3.1-.4.4-.4h3.3c.3,0,.4.1.4.4v2.5c0,.1,0,.1.1.2a.1.1,0,0,0,.1-.1c.8-2.1,2.2-3.2,4-3.2A1.7,1.7,0,0,1,508.6,118.3Z" fill="#fff"/>
    <path id="Path_4980" data-name="Path 4980" d="M512.6,138.6a5.383,5.383,0,0,1-1.9-4.2V134c0-.3.1-.4.4-.4h3.1c.3,0,.4.1.4.4v.3a2.665,2.665,0,0,0,.9,2,3.3,3.3,0,0,0,2.2.8,2.865,2.865,0,0,0,2.1-.8,2.792,2.792,0,0,0,.8-2,2.271,2.271,0,0,0-.6-1.6,4.125,4.125,0,0,0-1.3-1c-.5-.2-1.3-.6-2.3-1-1.1-.5-2-1-2.8-1.4a7.585,7.585,0,0,1-2-2,5.6,5.6,0,0,1-.9-3.3,6.025,6.025,0,0,1,1.8-4.6,7.063,7.063,0,0,1,4.9-1.6,7.2,7.2,0,0,1,5,1.7,5.879,5.879,0,0,1,1.8,4.6v.1c0,.3-.1.4-.4.4h-3c-.3,0-.4-.1-.4-.4v-.3a2.973,2.973,0,0,0-.8-2,3.156,3.156,0,0,0-4.2,0,2.792,2.792,0,0,0-.8,2,2.456,2.456,0,0,0,.5,1.5,5.8,5.8,0,0,0,1.2,1c.5.2,1.3.6,2.3,1.1a15.352,15.352,0,0,1,2.9,1.5,6.085,6.085,0,0,1,2.9,5.2,5.346,5.346,0,0,1-1.9,4.4,7.706,7.706,0,0,1-5.2,1.6A7.841,7.841,0,0,1,512.6,138.6Z" fill="#fff"/>
    <path id="Path_4981" data-name="Path 4981" d="M541.8,130.6H532a.215.215,0,0,0-.2.2v2.3a3.486,3.486,0,0,0,.9,2.5,3.045,3.045,0,0,0,4.2.3,3.2,3.2,0,0,0,1-1.9.462.462,0,0,1,.5-.3l3.2.2c.1,0,.3,0,.3.1s.1.2.1.3a6.576,6.576,0,0,1-2.1,4.4,7.675,7.675,0,0,1-5,1.6,7.566,7.566,0,0,1-5.3-1.8,6.475,6.475,0,0,1-2-4.9v-8.9a6.475,6.475,0,0,1,2-4.9,8.342,8.342,0,0,1,10.6,0,6.555,6.555,0,0,1,1.9,4.9v5.7C542.2,130.5,542,130.6,541.8,130.6Zm-9.1-8.4a3.656,3.656,0,0,0-.9,2.5V127a.215.215,0,0,0,.2.2h5.9a.215.215,0,0,0,.2-.2v-2.3a3.485,3.485,0,0,0-.9-2.5,2.765,2.765,0,0,0-2.3-1A3.029,3.029,0,0,0,532.7,122.2Z" fill="#fff"/>
    <path id="Path_4982" data-name="Path 4982" d="M547.6,138.4a6.547,6.547,0,0,1-2-5v-8.9a6.475,6.475,0,0,1,2-4.9,7.185,7.185,0,0,1,5.3-1.9,8.873,8.873,0,0,1,3.8.8,6.194,6.194,0,0,1,2.5,2.3,5.949,5.949,0,0,1,.9,3.2v.6c0,.3-.1.4-.4.4l-3.3.1c-.3,0-.4-.1-.4-.4v-.4a2.878,2.878,0,0,0-.9-2.1,2.94,2.94,0,0,0-2.2-.9,2.574,2.574,0,0,0-2.2,1,4.217,4.217,0,0,0-.9,2.5v8.4a3.486,3.486,0,0,0,.9,2.5,3.029,3.029,0,0,0,2.2,1,3.073,3.073,0,0,0,3.1-3.1v-.4c0-.3.1-.4.4-.4h3.3c.3,0,.4.1.4.4v.6a5.974,5.974,0,0,1-2,4.6,7.566,7.566,0,0,1-5.3,1.8A7.477,7.477,0,0,1,547.6,138.4Z" fill="#fff"/>
    <path id="Path_4983" data-name="Path 4983" d="M574.2,118h3.3c.3,0,.4.1.4.4v21c0,.3-.1.4-.4.4h-3.3c-.3,0-.4-.1-.4-.4v-1.2c0-.1,0-.1-.1-.1s-.1,0-.2.1a4.607,4.607,0,0,1-4.1,2,5.652,5.652,0,0,1-4.2-1.6c-1.1-1-1.6-2.6-1.6-4.8V118.4c0-.3.1-.4.4-.4h3.3c.3,0,.4.1.4.4v14.5c0,2.5,1,3.7,2.9,3.7a2.845,2.845,0,0,0,2.3-1.1,4.985,4.985,0,0,0,.8-2.9V118.4C573.7,118.1,573.9,118,574.2,118Z" fill="#fff"/>
    <path id="Path_4984" data-name="Path 4984" d="M592.5,118.3a.445.445,0,0,1,.2.6l-.6,3.3c0,.3-.2.3-.5.3a5.02,5.02,0,0,0-1.2-.2,2.814,2.814,0,0,0-.8.1,3,3,0,0,0-2.2,1.5,5.71,5.71,0,0,0-.9,3.2v12.6c0,.3-.1.4-.4.4h-3.3c-.3,0-.4-.1-.4-.4v-21c0-.3.1-.4.4-.4h3.3c.3,0,.4.1.4.4v2.5c0,.1,0,.1.1.2a.1.1,0,0,0,.1-.1c.8-2.1,2.2-3.2,4-3.2A1.655,1.655,0,0,1,592.5,118.3Z" fill="#fff"/>
    <path id="Path_4985" data-name="Path 4985" d="M595.8,113.8a2.9,2.9,0,1,1,2,.8A2.629,2.629,0,0,1,595.8,113.8Zm-.1,25.7v-21c0-.3.1-.4.4-.4h3.3c.3,0,.4.1.4.4v21c0,.3-.1.4-.4.4h-3.3A.43.43,0,0,1,595.7,139.5Z" fill="#fff"/>
    <path id="Path_4986" data-name="Path 4986" d="M612.7,121h-3a.215.215,0,0,0-.2.2v12.1a3.845,3.845,0,0,0,.6,2.4,2.2,2.2,0,0,0,1.9.6h.4c.3,0,.4.1.4.4v2.8c0,.3-.1.4-.4.4h-1.3a6.683,6.683,0,0,1-4.1-1.1c-.9-.7-1.4-2.1-1.4-4.1V121.2a.215.215,0,0,0-.2-.2h-1.7c-.3,0-.4-.1-.4-.4v-2.2c0-.3.1-.4.4-.4h1.7a.215.215,0,0,0,.2-.2V113c0-.3.1-.4.4-.4h3.1c.3,0,.4.1.4.4v4.9a.215.215,0,0,0,.2.2h3c.3,0,.4.1.4.4v2.2C613.1,120.9,613,121,612.7,121Z" fill="#fff"/>
    <path id="Path_4987" data-name="Path 4987" d="M615.8,148.3a.367.367,0,0,1-.1-.3v-2.5c0-.3.1-.4.4-.4a6.652,6.652,0,0,0,2.2-.4,2.811,2.811,0,0,0,1.3-1.5,15.273,15.273,0,0,0,.8-3.1v-.2l-5.5-21.3v-.1c0-.2.1-.3.4-.3h3.5c.3,0,.4.1.5.4l3.1,15.5a.1.1,0,1,0,.2,0l3.1-15.5c.1-.3.2-.4.5-.4h3.6a.367.367,0,0,1,.3.1.188.188,0,0,1,0,.3l-5.9,22.9a20.963,20.963,0,0,1-1.6,4.4,4.112,4.112,0,0,1-2.3,2,11.089,11.089,0,0,1-4.1.6H616Z" fill="#fff"/>
    <path id="Path_4988" data-name="Path 4988" d="M643.1,138.1a7.621,7.621,0,0,1-2.1-5.6v-1.1c0-.3.1-.4.4-.4h3.2c.3,0,.4.1.4.4v.9a4.722,4.722,0,0,0,1,3.2,3.17,3.17,0,0,0,2.5,1.2,3.631,3.631,0,0,0,2.6-1.1,4.359,4.359,0,0,0,1-3,5.091,5.091,0,0,0-.5-2.2,7.456,7.456,0,0,0-1.4-1.7c-.6-.5-1.5-1.2-2.9-2.2a29.877,29.877,0,0,1-3.4-2.8,12.065,12.065,0,0,1-2.1-2.8,7.9,7.9,0,0,1-.9-3.8,7.233,7.233,0,0,1,2.1-5.5,7.654,7.654,0,0,1,5.4-2,7.089,7.089,0,0,1,5.5,2.2,8.105,8.105,0,0,1,2.1,5.8v1.1c0,.3-.1.4-.4.4h-3.2c-.3,0-.4-.1-.4-.4v-1.2a4.454,4.454,0,0,0-1-3.1,3.225,3.225,0,0,0-2.6-1.2,3.408,3.408,0,0,0-2.5,1.1,4.375,4.375,0,0,0-.9,2.9,4.764,4.764,0,0,0,.9,2.9,19.3,19.3,0,0,0,3.7,3.2c1.7,1.3,3,2.3,3.9,3.1a9.545,9.545,0,0,1,2,2.6,7.391,7.391,0,0,1,.7,3.4,8.106,8.106,0,0,1-2.1,5.8,7.454,7.454,0,0,1-5.5,2.2A8.4,8.4,0,0,1,643.1,138.1Z" fill="#fff"/>
    <path id="Path_4989" data-name="Path 4989" d="M673.6,130.6h-9.7a.215.215,0,0,0-.2.2v2.3a3.486,3.486,0,0,0,.9,2.5,3.029,3.029,0,0,0,2.2,1,2.724,2.724,0,0,0,2-.7,3.2,3.2,0,0,0,1-1.9.462.462,0,0,1,.5-.3l3.2.2a.354.354,0,0,1,.4.4,6.576,6.576,0,0,1-2.1,4.4,7.675,7.675,0,0,1-5,1.6,7.566,7.566,0,0,1-5.3-1.8,6.475,6.475,0,0,1-2-4.9v-8.9a6.475,6.475,0,0,1,2-4.9,8.342,8.342,0,0,1,10.6,0,6.555,6.555,0,0,1,1.9,4.9v5.7C674,130.5,673.9,130.6,673.6,130.6Zm-9-8.4a3.656,3.656,0,0,0-.9,2.5V127a.215.215,0,0,0,.2.2h5.9a.215.215,0,0,0,.2-.2v-2.3a3.485,3.485,0,0,0-.9-2.5,2.765,2.765,0,0,0-2.3-1A2.865,2.865,0,0,0,664.6,122.2Z" fill="#fff"/>
    <path id="Path_4990" data-name="Path 4990" d="M690.8,119.5c1,1.2,1.4,2.9,1.4,5.2v14.7c0,.3-.1.4-.4.4h-3.3c-.3,0-.4-.1-.4-.4V125a4.655,4.655,0,0,0-.8-2.8,2.459,2.459,0,0,0-2.2-1,2.574,2.574,0,0,0-2.2,1,5.083,5.083,0,0,0-.9,2.7v14.5c0,.3-.1.4-.4.4h-3.3c-.3,0-.4-.1-.4-.4v-21c0-.3.1-.4.4-.4h3.3c.3,0,.4.1.4.4v1.2c0,.1,0,.1.1.1s.1,0,.2-.1a5.808,5.808,0,0,1,8.5-.1Z" fill="#fff"/>
    <path id="Path_4991" data-name="Path 4991" d="M697.6,138.6a5.383,5.383,0,0,1-1.9-4.2V134c0-.3.1-.4.4-.4h3.1c.3,0,.4.1.4.4v.3a2.665,2.665,0,0,0,.9,2,3.3,3.3,0,0,0,2.2.8,2.865,2.865,0,0,0,2.1-.8,2.792,2.792,0,0,0,.8-2,2.271,2.271,0,0,0-.6-1.6,4.125,4.125,0,0,0-1.3-1c-.5-.2-1.3-.6-2.3-1-1.1-.5-2-1-2.8-1.4a7.585,7.585,0,0,1-2-2,5.6,5.6,0,0,1-.9-3.3,6.025,6.025,0,0,1,1.8-4.6,7.063,7.063,0,0,1,4.9-1.6,7.2,7.2,0,0,1,5,1.7,5.879,5.879,0,0,1,1.8,4.6v.1c0,.3-.1.4-.4.4h-3c-.3,0-.4-.1-.4-.4v-.3a2.973,2.973,0,0,0-.8-2,2.52,2.52,0,0,0-2.1-.8,2.865,2.865,0,0,0-2.1.8,2.792,2.792,0,0,0-.8,2,2.456,2.456,0,0,0,.5,1.5,5.8,5.8,0,0,0,1.2,1c.5.2,1.3.6,2.3,1.1a15.352,15.352,0,0,1,2.9,1.5,6.085,6.085,0,0,1,2.9,5.2,5.346,5.346,0,0,1-1.9,4.4,7.706,7.706,0,0,1-5.2,1.6A7.412,7.412,0,0,1,697.6,138.6Z" fill="#fff"/>
    <path id="Path_4992" data-name="Path 4992" d="M726.7,130.6H717a.215.215,0,0,0-.2.2v2.3a3.486,3.486,0,0,0,.9,2.5,3.045,3.045,0,0,0,4.2.3,3.2,3.2,0,0,0,1-1.9.462.462,0,0,1,.5-.3l3.2.2c.1,0,.3,0,.3.1a.367.367,0,0,1,.1.3,6.576,6.576,0,0,1-2.1,4.4,7.675,7.675,0,0,1-5,1.6,7.566,7.566,0,0,1-5.3-1.8,6.475,6.475,0,0,1-2-4.9v-8.9a6.475,6.475,0,0,1,2-4.9,8.342,8.342,0,0,1,10.6,0,6.555,6.555,0,0,1,1.9,4.9v5.7C727.2,130.5,727,130.6,726.7,130.6Zm-9-8.4a3.656,3.656,0,0,0-.9,2.5V127a.215.215,0,0,0,.2.2h5.9a.215.215,0,0,0,.2-.2v-2.3a3.485,3.485,0,0,0-.9-2.5,3.083,3.083,0,0,0-2.3-1A3.029,3.029,0,0,0,717.7,122.2Z" fill="#fff"/>
  </g>
</svg>
