<?xml version="1.0" encoding="utf-8"?>
<!-- Generator: Adobe Illustrator 25.2.0, SVG Export Plug-In . SVG Version: 6.00 Build 0)  -->
<svg version="1.1" id="Component_122_1" xmlns="http://www.w3.org/2000/svg" xmlns:xlink="http://www.w3.org/1999/xlink" x="0px"
	 y="0px" viewBox="0 0 729.2 148.9" style="enable-background:new 0 0 729.2 148.9;" xml:space="preserve">
<style type="text/css">
	.st0{fill:none;}
	.st1{fill:#229022;}
	.st2{fill:#0A7533;}
	.st3{opacity:0.5;fill:#003300;enable-background:new    ;}
	.st4{fill:#0CB04A;}
</style>
<g id="Group_4945">
	<g id="Group_4940" transform="translate(0 0)">
		<g id="Group_4937">
			<g id="Group_4936" class="fontcolor">
				<path id="Path_4759" d="M0,66.6V5.2C0,4,0.5,2.8,1.4,2c0.9-0.9,2-1.4,3.2-1.4h9.2c1.3,0,2.5,0.5,3.4,1.4c0.9,0.9,1.3,2,1.3,3.2
					v61.2c0,1.2-0.5,2.4-1.4,3.2c-0.9,0.9-2,1.3-3.2,1.3H4.7c-1.2,0-2.4-0.4-3.2-1.3C0.5,68.9-0.1,67.8,0,66.6z"/>
				<path id="Path_4760" d="M32.6,66.4V5.2c0-1.2,0.4-2.4,1.3-3.2c0.8-0.9,2-1.4,3.2-1.4h14.4c1.3,0.1,2.6,0.6,3.6,1.4
					c1.2,0.9,2.3,2,3.1,3.2L88.1,51V5.1c-0.1-2.5,1.9-4.5,4.3-4.5c0.1,0,0.1,0,0.2,0h8.4c1.2,0,2.4,0.4,3.2,1.3
					c0.9,0.9,1.3,2.1,1.3,3.4v61.2c0.1,2.5-1.9,4.5-4.3,4.5c-0.1,0-0.1,0-0.2,0H84.9c-1.4,0-2.8-0.5-3.9-1.3c-1.3-0.9-2.4-2-3.2-3.2
					L50.6,24.3v42.2c0.1,2.5-1.9,4.5-4.3,4.5c-0.1,0-0.1,0-0.2,0h-8.6c-1.2,0-2.4-0.4-3.2-1.3C33.2,69,32.6,67.7,32.6,66.4z"/>
				<path id="Path_4761" d="M223.8,66.6V5.2c0-1.2,0.5-2.4,1.4-3.2c0.9-0.9,2-1.4,3.2-1.4h9.2c1.3,0,2.5,0.5,3.4,1.4
					c0.9,0.9,1.3,2,1.3,3.2v61.2c0,1.2-0.5,2.4-1.4,3.2c-0.9,0.9-2,1.3-3.2,1.3h-9.2c-1.2,0-2.4-0.4-3.2-1.3
					C224.3,68.9,223.8,67.8,223.8,66.6z"/>
				<path id="Path_4762" d="M256.6,66.4V5.2c0-1.2,0.4-2.4,1.3-3.2c0.8-0.9,2-1.4,3.2-1.4h14.4c1.3,0.1,2.6,0.6,3.6,1.4
					c1.2,0.9,2.3,2,3.1,3.2L312.1,51V5.1c-0.1-2.5,1.9-4.5,4.3-4.5c0.1,0,0.1,0,0.2,0h8.5c1.2,0,2.4,0.4,3.2,1.3
					c0.9,0.9,1.3,2.1,1.3,3.4v61.2c0.1,2.5-1.9,4.5-4.3,4.5c-0.1,0-0.1,0-0.2,0h-16.4c-1.4,0-2.8-0.5-3.9-1.3
					c-1.3-0.9-2.4-2-3.2-3.2l-27.2-42.2v42.2c0.1,2.5-1.9,4.5-4.3,4.5c-0.1,0-0.1,0-0.2,0h-8.6c-1.2,0-2.4-0.4-3.2-1.3
					C257,68.9,256.5,67.7,256.6,66.4z"/>
				<path id="Path_4763" d="M339.9,53c-0.2-1.6,0.5-3.1,1.7-4.2c1-0.8,2.1-1.2,3.4-1.3h5.8c3,0,5.2,1.6,6.8,4.8s4.9,4.8,10.4,4.8
					l17.3,0.4c5.7,0,8.6-1.9,8.6-5.7c0-2.9-3.5-5.1-10.5-6.8c-3.1-0.8-6.6-1.4-10.4-2.2s-7.5-1.7-11.3-2.9c-3.5-1.1-7-2.4-10.4-3.9
					c-3-1.5-5.6-3.6-7.7-6.2c-2-2.7-3.1-6-3-9.4c0-6.6,2.3-11.7,7-15.2c4.7-3.6,12.7-5.3,24.2-5.3l12.5,0.3
					c6.4-0.1,12.8,1.7,18.2,5.2c5.5,3.4,8.1,7.8,8.1,13c0.2,1.6-0.5,3.1-1.7,4.2c-0.9,0.7-2.1,1.2-3.2,1.3h-5.8
					c-3,0-5.2-1.6-6.8-4.8c-1.6-3.2-4.9-4.8-10.4-4.8L367.7,14c-5.7,0-8.6,2-8.6,5.7c0,2.1,1.8,3.8,5.5,5.1
					c4.3,1.5,8.8,2.6,13.3,3.4c5.2,1,10.4,2.2,15.6,3.6c4.9,1.3,9.5,3.7,13.4,6.9c3.5,3,5.5,7.4,5.5,12.1c0,6.6-2.3,11.7-7,15.2
					c-4.7,3.6-12.7,5.3-24.2,5.3l-14.9-0.3c-6.4,0.1-12.8-1.7-18.2-5.2C342.6,62.5,339.9,58.2,339.9,53z"/>
				<path id="Path_4764" d="M422.4,66.4V5.1c0-1.2,0.5-2.4,1.4-3.2c0.9-0.9,2-1.3,3.2-1.3h56.7c1.2,0,2.4,0.5,3.2,1.4
					c0.9,0.9,1.3,2,1.3,3.2v4.7c0.1,2.5-1.9,4.5-4.3,4.5c-0.1,0-0.1,0-0.2,0h-42.9v14.3h36.9c2.5-0.1,4.5,1.9,4.5,4.3
					c0,0.1,0,0.1,0,0.2V38c0.1,2.5-1.9,4.5-4.3,4.5c-0.1,0-0.1,0-0.2,0h-36.9v14.6h42.8c2.5-0.1,4.5,1.9,4.5,4.3c0,0.1,0,0.1,0,0.2
					v4.7c0,1.2-0.5,2.4-1.4,3.2c-0.9,0.9-2,1.3-3.2,1.3H427c-1.2,0-2.4-0.4-3.2-1.3C422.8,68.8,422.3,67.6,422.4,66.4z"/>
				<path id="Path_4765" d="M497.4,66.4V5.2c0-1.2,0.4-2.4,1.3-3.2c0.8-0.9,2-1.4,3.2-1.4h14.4c1.3,0.1,2.6,0.6,3.6,1.4
					c1.2,0.9,2.3,2,3.1,3.2L552.9,51V5.1c-0.1-2.5,1.9-4.5,4.3-4.5c0.1,0,0.1,0,0.2,0h8.4c1.2,0,2.4,0.4,3.2,1.3
					c0.9,0.9,1.3,2.1,1.3,3.4v61.2c0.1,2.5-1.9,4.5-4.3,4.5c-0.1,0-0.1,0-0.2,0h-16.4c-1.4,0-2.8-0.5-3.9-1.3
					c-1.3-0.9-2.4-2-3.2-3.2l-27.2-42.2v42.2c0.1,2.5-1.9,4.5-4.3,4.5c-0.1,0-0.1,0-0.2,0h-8.6c-1.2,0-2.4-0.4-3.2-1.3
					C497.9,68.9,497.4,67.7,497.4,66.4z"/>
				<path id="Path_4766" d="M580.9,53c-0.2-1.6,0.5-3.1,1.7-4.2c1-0.8,2.1-1.2,3.4-1.3h5.8c3,0,5.2,1.6,6.8,4.8
					c1.6,3.2,4.9,4.8,10.4,4.8l17.3,0.5c5.7,0,8.6-1.9,8.6-5.7c0-2.9-3.5-5.1-10.5-6.8c-3.1-0.8-6.6-1.4-10.4-2.2s-7.5-1.7-11.3-2.9
					c-3.5-1.1-7-2.4-10.4-3.9c-3-1.5-5.6-3.6-7.7-6.2c-2-2.7-3.1-6-3-9.4c0-6.6,2.3-11.7,7-15.2c4.7-3.6,12.7-5.3,24.2-5.3l12.5,0.3
					c6.4-0.1,12.8,1.7,18.2,5.2c5.5,3.4,8.1,7.8,8.1,13c0.2,1.6-0.5,3.1-1.7,4.2c-0.9,0.7-2.1,1.2-3.2,1.3h-6c-3,0-5.2-1.6-6.8-4.8
					c-1.6-3.2-4.9-4.8-10.4-4.8l-14.8-0.3c-5.7,0-8.6,1.9-8.6,5.7c0,2.1,1.8,3.8,5.5,5.1c4.3,1.5,8.8,2.6,13.3,3.4
					c5.2,1,10.4,2.2,15.6,3.6c4.9,1.3,9.5,3.7,13.4,6.9c3.5,3,5.5,7.4,5.5,12.1c0,6.6-2.3,11.7-7,15.2c-4.7,3.6-12.7,5.3-24.2,5.3
					L607,71.2c-6.4,0.1-12.8-1.7-18.2-5.2C583.5,62.5,580.9,58.2,580.9,53z"/>
				<path id="Path_4767" d="M663.3,66.4V5.1c0-1.2,0.5-2.4,1.4-3.2c0.9-0.9,2-1.3,3.2-1.3h56.7c1.2,0,2.4,0.5,3.2,1.4
					c0.9,0.9,1.3,2,1.3,3.2v4.7c0.1,2.5-1.9,4.5-4.3,4.5c-0.1,0-0.1,0-0.2,0h-42.9v14.3h36.9c2.5-0.1,4.5,1.9,4.5,4.3
					c0,0.1,0,0.1,0,0.2V38c0.1,2.5-1.9,4.5-4.3,4.5c-0.1,0-0.1,0-0.2,0h-36.9v14.6h42.8c2.5-0.1,4.5,1.9,4.5,4.3c0,0.1,0,0.1,0,0.2
					v4.7c0,1.2-0.5,2.4-1.4,3.2c-0.9,0.9-2,1.3-3.2,1.3h-56.5c-1.2,0-2.4-0.4-3.2-1.3C663.7,68.7,663.3,67.6,663.3,66.4z"/>
				<g id="Group_4935" transform="translate(112.045 0.391)">
					<path id="Path_4768" class="st0" d="M53.3,24.2L35,0l18.3,24.3V24.2z"/>
					<path id="Path_4769" class="st1" d="M53.3,24.3L35,0H0l53.3,71l17.5-23.7L53.3,24.2V24.3z"/>
					<path id="Path_4770" class="st2" d="M71.4,0L53.3,24.2l17.5,23.1L106.5,0L71.4,0z"/>
					<path id="Path_4771" class="st3" d="M56.2,20.4l-2.9,3.8l17.5,23.1l3.4-4.4L56.2,20.4z"/>
				</g>
			</g>
		</g>
		<g id="Group_4939" transform="translate(127.253 71.491)">
			<path id="Path_4772" class="st4" d="M38.1,23.3c-3.2,0-5.8,2.6-5.8,5.8c0,0,0,0,0,0v5.7h11.7v-5.7C43.9,25.9,41.4,23.3,38.1,23.3
				C38.1,23.3,38.1,23.3,38.1,23.3z"/>
			<path id="Path_4773" class="st4" d="M38.1,0C17.1,0,0,17.1,0,38.1s17.1,38.1,38.1,38.1s38.1-17.1,38.1-38.1c0,0,0,0,0,0
				C76.2,17.1,59.2,0,38.1,0C38.1,0,38.1,0,38.1,0z M54.6,54.1c0,2.4-1.9,4.3-4.3,4.3H25.9c-2.4,0-4.3-1.9-4.3-4.3V39.4
				c0-2.4,1.9-4.3,4.3-4.3h0.7v-5.7c0-6.4,5.2-11.6,11.6-11.6c6.4,0,11.6,5.2,11.6,11.6v5.7h0.6c2.3-0.1,4.2,1.7,4.3,4
				c0,0.1,0,0.2,0,0.3L54.6,54.1L54.6,54.1z"/>
			<g id="Group_4938" transform="translate(33.795 39.125)">
				<path id="Path_4774" class="st4" d="M0.1,3.5C0,3.4,0,3.3,0,3.1c0-0.2,0.2-0.4,0.4-0.5l2.5-2.1C3.3,0.2,3.8,0,4.3,0h1.4
					c0.5,0,0.9,0.4,0.9,0.9c0,0,0,0,0,0v12.5c0,0.2-0.1,0.5-0.3,0.7c-0.3,0.1-0.4,0.3-0.7,0.3H3.9c-0.5,0-0.9-0.4-0.9-0.9
					c0,0,0,0,0,0V3.6L1.8,4.5C1.7,4.7,1.6,4.7,1.3,4.7C1.2,4.7,1,4.5,0.9,4.4L0.1,3.5z"/>
			</g>
		</g>
	</g>
</g>
</svg>
