<svg width="109" height="150" viewBox="0 0 109 150" fill="none" xmlns="http://www.w3.org/2000/svg">
<path d="M54.6428 24.7584L36.0802 0H0.833328L54.6428 72.2677L72.3215 48.1785L54.6428 24.6469V24.7584Z" fill="#2AA71A"/>
<path d="M72.7634 0L54.6427 24.6469L72.3214 48.1785L108.231 0H72.7634Z" fill="#006E00"/>
<path opacity="0.5" d="M57.5155 20.855L54.6427 24.6468L72.3214 48.1784L75.7466 43.7174L57.5155 20.855Z" fill="#003A00"/>
<path d="M54.6427 96.1335C51.3279 96.1335 48.7866 98.8101 48.7866 102.044V107.844H60.4987H60.6092V102.044C60.4987 98.6986 57.8469 96.1335 54.6427 96.1335Z" fill="#006E00"/>
<path d="M54.6427 72.3792C33.4282 72.3792 16.1915 89.6654 16.1915 111.19C16.1915 132.714 33.3177 150 54.6427 150C75.9676 150 93.0938 132.714 93.0938 111.19C93.0938 89.6654 75.8571 72.3792 54.6427 72.3792ZM71.2164 127.472C71.2164 129.814 69.2276 131.822 66.9073 131.822H42.2676C39.9472 131.822 37.9584 129.814 37.9584 127.472V112.528C37.9584 110.186 39.9472 108.178 42.2676 108.178H42.9305V102.379C42.9305 95.7992 48.1236 90.4461 54.6427 90.4461C61.1617 90.4461 66.4653 95.9108 66.4653 102.379V108.178H67.1282C69.6695 108.178 71.5479 110.186 71.4374 112.528L71.2164 127.472Z" fill="#006E00"/>
<path d="M50.4439 115.873C50.3334 115.762 50.3334 115.65 50.3334 115.427C50.3334 115.204 50.4439 114.981 50.7754 114.87L53.3167 112.751C53.7586 112.528 54.2006 112.193 54.7531 112.193H56.1895C56.4105 112.193 56.7419 112.305 56.8524 112.416C56.9629 112.528 57.0734 112.862 57.0734 113.085V125.799C57.0734 126.022 56.9629 126.357 56.8524 126.468C56.6314 126.58 56.4105 126.691 56.1895 126.691H54.3111C54.0901 126.691 53.7586 126.58 53.6482 126.468C53.5377 126.357 53.4272 126.022 53.4272 125.799V115.873L52.2118 116.766C52.1013 116.877 51.9908 116.877 51.6593 116.877C51.5488 116.877 51.4383 116.766 51.2173 116.654L50.4439 115.873Z" fill="#006E00"/>
</svg>
