<?xml version="1.0" standalone="no"?>
<!DOCTYPE svg PUBLIC "-//W3C//DTD SVG 20010904//EN"
 "http://www.w3.org/TR/2001/REC-SVG-20010904/DTD/svg10.dtd">
<svg version="1.0" xmlns="http://www.w3.org/2000/svg"
 width="3000.000000pt" height="2000.000000pt" viewBox="0 0 3000.000000 2000.000000"
 preserveAspectRatio="xMidYMid meet">

<g transform="translate(0.000000,2000.000000) scale(0.100000,-0.100000)"
fill="#000000" stroke="none">
<path d="M0 10000 l0 -10000 15000 0 15000 0 0 3195 c0 1813 -4 3195 -9 3195
-5 0 -30 -9 -56 -21 -25 -11 -49 -19 -51 -16 -2 2 23 15 56 28 l60 24 0 818
c0 776 -1 819 -17 814 -10 -3 -85 -35 -168 -72 -82 -37 -166 -73 -185 -80 -19
-8 -100 -43 -180 -78 -124 -56 -147 -70 -162 -98 -9 -18 -23 -36 -30 -40 -9
-6 -8 -34 5 -136 94 -699 126 -948 122 -951 -6 -7 -12 26 -45 268 -81 587
-111 804 -113 805 -27 12 -57 40 -57 53 0 14 -24 25 -107 51 -60 18 -155 48
-213 67 -58 18 -224 69 -370 114 -146 45 -312 97 -370 115 -392 124 -362 117
-383 97 -19 -16 -19 -16 -13 4 6 20 -1 24 -81 48 -49 15 -151 47 -229 72 -77
24 -148 44 -156 44 -19 0 -54 -133 -46 -174 3 -17 1 -26 -7 -26 -20 0 -24 38
-8 71 8 17 16 56 17 87 l1 57 -93 31 c-51 17 -95 27 -98 22 -3 -4 -18 1 -34
12 -15 11 -34 20 -42 20 -7 1 -24 8 -38 16 -16 10 -18 13 -5 8 11 -4 32 -8 46
-9 15 -1 42 -9 61 -18 63 -30 211 -68 218 -56 9 13 10 21 100 459 39 190 79
384 90 431 30 136 34 183 17 197 -15 13 -82 -9 -537 -178 -191 -70 -239 -86
-230 -77 5 6 122 51 240 93 205 72 504 191 507 200 4 13 -25 24 -430 156 -175
56 -313 104 -308 106 5 2 58 -13 117 -32 60 -19 174 -56 254 -81 80 -26 187
-60 238 -77 98 -32 117 -34 194 -21 46 8 66 23 208 153 15 14 60 54 100 90 40
36 78 70 84 75 6 6 49 44 96 85 46 41 89 80 95 85 72 65 175 157 192 172 l22
18 -27 37 c-24 33 -309 373 -408 488 -53 60 -194 219 -219 246 -18 19 -102 43
-91 26 2 -4 -16 -5 -41 -3 -28 2 -41 6 -33 11 9 5 5 8 -11 8 -13 -1 -127 7
-254 16 -433 32 -630 46 -907 63 -152 9 -275 20 -273 23 3 5 155 -2 835 -40
526 -29 678 -36 695 -30 12 4 10 11 -6 38 -12 17 -24 32 -28 32 -4 0 -15 15
-25 33 -14 23 -2 14 40 -30 34 -36 72 -67 90 -72 32 -9 442 1 719 18 82 5 153
7 157 4 5 -2 8 0 8 6 0 5 9 8 20 6 11 -2 21 3 24 13 10 32 26 157 56 442 33
306 40 363 46 358 2 -2 -8 -114 -22 -249 -38 -378 -52 -553 -43 -563 5 -5 26
-4 51 3 24 7 64 11 88 10 25 -2 101 -2 170 -1 l126 2 18 31 c29 49 32 21 -134
1104 -62 403 -69 440 -80 443 -6 2 -17 10 -24 18 -19 18 -66 2 -67 -23 0 -14
-2 -14 -9 4 -8 19 -13 21 -39 13 -17 -5 -31 -5 -31 0 0 4 15 11 34 14 20 4 37
15 44 29 8 18 11 19 11 5 1 -27 30 -22 43 7 13 30 48 41 76 26 17 -9 52 5 212
84 106 53 194 94 197 92 2 -3 -84 -49 -192 -103 -139 -70 -195 -103 -195 -115
0 -10 -7 -25 -16 -33 -18 -19 -17 -28 21 -271 14 -82 51 -323 85 -535 114
-728 118 -747 166 -769 36 -16 315 -13 464 5 69 8 151 16 183 18 33 2 62 8 65
13 4 6 22 10 41 11 19 0 37 5 40 11 4 5 13 9 21 9 8 -1 25 0 38 0 l22 2 0
1060 0 1061 -30 -16 c-16 -9 -30 -13 -30 -11 0 3 14 12 30 21 l30 16 0 3334 0
3335 -15000 0 -15000 0 0 -10000z m28330 7725 c11 -10 20 -29 20 -42 0 -29
-41 -73 -68 -73 -30 0 -62 32 -68 66 -9 60 68 92 116 49z m1020 -2195 c0 -5
-5 -10 -11 -10 -5 0 -7 5 -4 10 3 6 8 10 11 10 2 0 4 -4 4 -10z m-1091 -284
c59 -62 -39 -156 -99 -96 -28 28 -27 84 2 104 33 23 71 20 97 -8z m857 -433
c-10 -10 -19 5 -10 18 6 11 8 11 12 0 2 -7 1 -15 -2 -18z m-27569 -155 c6 -1
9 -7 7 -13 -4 -8 23 -15 83 -21 l88 -10 -83 -8 c-56 -6 -90 -15 -106 -27 -30
-23 -79 -25 -97 -3 -7 9 -24 20 -38 26 l-25 9 31 19 c17 10 34 24 38 30 7 11
27 10 102 -2z m23353 -18 c17 -17 35 -28 41 -25 5 4 9 2 9 -3 0 -6 6 -9 13 -8
14 1 198 -13 242 -19 17 -2 65 -7 107 -10 43 -4 80 -11 84 -16 3 -5 -1 -10 -8
-11 -7 0 -17 -2 -23 -3 -5 -1 -32 -5 -60 -10 -27 -4 -56 -12 -62 -17 -7 -6
-23 -8 -35 -5 -23 5 -23 5 1 -11 14 -9 47 -27 75 -39 69 -30 36 -29 -55 2 -78
27 -222 54 -263 50 -59 -7 -69 -15 -63 -51 7 -40 -5 -37 -23 5 -10 26 -17 30
-42 27 -26 -3 -57 -29 -58 -48 0 -5 -5 -8 -10 -8 -6 0 -8 11 -4 25 9 38 -9 51
-73 54 -120 4 -323 21 -344 29 -42 16 65 33 249 41 l172 7 34 37 c18 20 41 37
50 37 8 0 29 -14 46 -30z m1983 -708 c49 -54 18 -132 -52 -132 -46 0 -74 27
-74 72 0 61 88 103 126 60z m3037 -652 c-8 -5 -19 -10 -25 -10 -5 0 -3 5 5 10
8 5 20 10 25 10 6 0 3 -5 -5 -10z m-2440 -29 c0 -13 -29 -35 -37 -28 -7 8 15
37 28 37 5 0 9 -4 9 -9z m2369 -5 c-13 -13 -572 -286 -577 -282 -2 3 123 68
279 145 248 123 315 153 298 137z m-5142 -542 c-3 -3 -12 -4 -19 -1 -8 3 -5 6
6 6 11 1 17 -2 13 -5z m3913 -13 c-8 -5 -89 -25 -180 -45 -91 -20 -191 -42
-223 -50 -33 -8 -55 -10 -50 -5 4 4 80 24 168 44 88 19 183 41 210 49 60 17
98 20 75 7z m-3240 -51 c0 -5 -2 -10 -4 -10 -3 0 -8 5 -11 10 -3 6 -1 10 4 10
6 0 11 -4 11 -10z m2755 -60 c-27 -12 -43 -12 -25 0 8 5 22 9 30 9 10 0 8 -3
-5 -9z m-110 -26 c-33 -7 -67 -13 -75 -12 -23 1 82 26 110 26 14 0 -2 -6 -35
-14z m-138 -30 c-3 -3 -12 -4 -19 -1 -8 3 -5 6 6 6 11 1 17 -2 13 -5z m-80
-20 c-3 -3 -12 -4 -19 -1 -8 3 -5 6 6 6 11 1 17 -2 13 -5z m-573 -120 c22 4
27 3 16 -4 -8 -5 -23 -10 -32 -10 -11 0 -18 -8 -18 -19 0 -10 -10 -31 -22 -46
-20 -25 -25 -27 -71 -21 -32 3 -56 1 -66 -6 -13 -10 -13 -9 0 6 12 13 15 29
12 55 -6 46 19 80 67 90 30 6 38 3 59 -22 20 -24 30 -28 55 -23z m213 40 c-3
-3 -12 -4 -19 -1 -8 3 -5 6 6 6 11 1 17 -2 13 -5z m-3816 -274 c27 -15 26 -66
-2 -81 -53 -28 -96 41 -47 75 27 19 24 19 49 6z m5026 -67 c-2 -16 -4 -3 -4
27 0 30 2 43 4 28 2 -16 2 -40 0 -55z m-1895 -58 c0 -5 -5 -11 -11 -13 -6 -2
-11 4 -11 13 0 9 5 15 11 13 6 -2 11 -8 11 -13z m1885 -32 c-3 -10 -5 -4 -5
12 0 17 2 24 5 18 2 -7 2 -21 0 -30z m-10 -65 c-3 -7 -5 -2 -5 12 0 14 2 19 5
13 2 -7 2 -19 0 -25z m-6979 -410 c18 -18 14 -45 -10 -62 -38 -27 -80 15 -55
54 13 22 47 26 65 8z m4159 -303 c13 0 22 -4 22 -10 -4 -39 3 -53 34 -63 l32
-10 -31 -1 c-22 -1 -34 -8 -42 -26 -6 -13 -22 -27 -35 -31 -21 -5 -26 -14 -33
-57 l-8 -52 -4 53 c-2 28 -6 52 -11 52 -4 0 -17 9 -29 20 -50 47 -6 149 57
133 14 -4 36 -7 48 -8z m-1903 -524 c25 -27 17 -72 -15 -90 -24 -13 -29 -13
-53 2 -47 31 -27 107 28 107 13 0 31 -9 40 -19z m-19100 -146 c32 -21 55 -27
147 -34 61 -5 113 -11 115 -14 3 -2 -19 -7 -48 -11 -29 -4 -64 -10 -76 -13
-22 -5 -21 -7 15 -23 48 -23 42 -24 -51 -4 -63 13 -80 13 -92 3 -16 -13 -116
-30 -109 -18 3 3 -4 14 -15 24 -13 12 -42 18 -102 21 -46 3 -94 8 -108 11 -23
5 -24 6 -5 13 11 5 43 9 70 10 28 1 61 5 75 9 l25 7 -30 17 c-35 19 -14 23 34
6 25 -9 36 -8 54 4 32 23 59 20 101 -8z m12132 -194 c-3 -5 3 -11 13 -14 15
-4 17 -11 12 -43 -6 -35 -10 -40 -44 -48 -44 -11 -71 0 -74 30 -3 17 -2 17 6
-1 7 -15 10 -16 10 -4 1 9 -2 19 -6 23 -4 3 -8 17 -9 29 -2 12 0 16 3 9 4 -11
8 -10 22 1 14 13 36 22 64 26 5 0 6 -3 3 -8z m2962 -541 c12 -12 22 -28 22
-37 0 -25 -30 -53 -56 -53 -24 0 -62 42 -44 48 6 2 7 8 4 13 -5 10 31 49 46
49 3 0 16 -9 28 -20z m6732 -52 c10 -6 7 -7 -10 -2 -14 3 -32 11 -40 16 -10 6
-7 7 10 2 14 -3 32 -11 40 -16z m-14297 2 c23 1 36 -3 33 -9 -4 -5 13 -13 39
-16 59 -9 48 -25 -18 -25 -30 0 -65 -7 -82 -17 -35 -19 -135 -24 -135 -7 0 15
-32 23 -90 25 -25 0 -56 5 -70 9 l-25 8 25 2 c14 1 -4 8 -40 15 l-65 13 55 0
c30 0 96 -3 145 -8 73 -6 93 -5 105 7 10 10 26 12 50 9 19 -4 52 -6 73 -6z
m10686 -572 c19 -49 -39 -87 -74 -48 -15 17 -16 24 -7 45 16 34 69 36 81 3z
m3617 -5 c-10 -10 -89 -33 -94 -28 -2 2 18 10 44 19 59 18 59 18 50 9z m-116
-43 c-8 -5 -19 -10 -25 -10 -5 0 -3 5 5 10 8 5 20 10 25 10 6 0 3 -5 -5 -10z
m-67 -25 c1 -5 -6 -11 -15 -13 -11 -2 -18 3 -18 13 0 17 30 18 33 0z m-780
-237 c46 -24 55 -61 24 -96 -28 -31 -67 -34 -97 -8 -23 18 -25 26 -18 53 8 29
40 63 61 63 5 0 18 -5 30 -12z m-3783 -78 c21 -21 18 -42 -8 -72 -19 -22 -41
-23 -70 -2 -26 18 -28 50 -5 76 21 24 58 23 83 -2z m-3430 -126 c30 -1 62 3
72 7 13 7 15 5 11 -11 -4 -14 1 -21 22 -26 15 -4 199 -4 409 -1 378 5 379 5
201 -8 -99 -7 -200 -14 -225 -15 -31 -1 -39 -4 -26 -9 10 -4 -63 -13 -165 -19
-110 -8 -202 -19 -229 -28 -76 -26 -86 -27 -136 -4 l-49 23 -260 -15 c-269
-16 -361 -10 -164 10 62 7 115 16 118 20 12 18 51 25 181 32 156 9 173 14 164
42 -5 16 -3 18 7 12 8 -5 39 -9 69 -10z m8375 -214 c13 -5 14 -9 5 -9 -8 0
-24 4 -35 9 -13 5 -14 9 -5 9 8 0 24 -4 35 -9z m-10994 -25 c10 4 29 -1 41 -9
12 -9 16 -16 9 -16 -8 0 -11 -6 -7 -16 10 -26 -22 -44 -56 -32 -20 7 -28 17
-28 35 0 14 4 22 10 18 7 -4 9 2 7 17 -2 12 -2 17 0 10 3 -8 12 -10 24 -7z
m8089 -275 c0 -5 -4 -10 -10 -10 -5 0 -10 5 -10 10 0 6 5 10 10 10 6 0 10 -4
10 -10z m3235 -100 c-4 -23 -9 -39 -11 -37 -3 2 -2 23 2 46 4 23 9 40 11 37 3
-3 2 -23 -2 -46z m-35 -150 l-11 -25 6 25 c2 14 5 34 6 45 2 19 2 19 6 0 2
-12 -1 -32 -7 -45z m-13 -52 c-3 -8 -6 -5 -6 6 -1 11 2 17 5 13 3 -3 4 -12 1
-19z m-10 -60 c-3 -8 -6 -5 -6 6 -1 11 2 17 5 13 3 -3 4 -12 1 -19z m-4303
-29 c31 -24 35 -67 9 -97 -45 -53 -123 -24 -123 45 0 65 61 93 114 52z m4293
-31 c-3 -8 -6 -5 -6 6 -1 11 2 17 5 13 3 -3 4 -12 1 -19z m-7 -43 c0 -8 -4
-15 -10 -15 -5 0 -7 7 -4 15 4 8 8 15 10 15 2 0 4 -7 4 -15z m-1882 -517 c16
-16 15 -59 -3 -82 -21 -28 -83 -14 -91 20 -11 42 10 74 49 74 18 0 38 -5 45
-12z m4169 -640 c-3 -8 -6 -5 -6 6 -1 11 2 17 5 13 3 -3 4 -12 1 -19z m-3887
2 c0 -5 -4 -10 -9 -10 -6 0 -13 5 -16 10 -3 6 1 10 9 10 9 0 16 -4 16 -10z
m1378 -40 c12 -12 22 -30 22 -40 0 -12 7 -20 18 -21 16 -1 16 -2 0 -6 -10 -2
-18 -8 -18 -13 0 -19 -33 -40 -63 -40 -41 1 -65 20 -73 58 -5 24 -1 36 19 56
31 31 66 33 95 6z m2519 -27 c-3 -10 -5 -2 -5 17 0 19 2 27 5 18 2 -10 2 -26
0 -35z m21 -98 l1 -20 -9 20 c-5 11 -8 34 -8 50 l0 30 8 -30 c4 -16 8 -39 8
-50z m397 -53 c-13 -11 -132 -55 -122 -45 9 9 107 51 122 52 6 1 6 -2 0 -7z
m-339 -94 c34 -15 39 -15 92 3 68 24 80 19 15 -6 l-48 -19 30 -13 30 -14 -41
4 c-38 4 -41 3 -50 -27 -13 -43 -58 -65 -93 -45 -14 8 -30 25 -36 37 -5 13
-23 27 -40 31 l-30 9 30 1 c36 1 85 48 86 83 l1 23 9 -25 c5 -14 26 -32 45
-42z m-27526 -208 c0 -5 17 -10 37 -10 33 0 35 -1 18 -13 -16 -12 -10 -15 51
-20 38 -4 103 -7 144 -8 41 -1 86 -4 100 -8 21 -6 -38 -11 -311 -24 -9 -1 -15
-6 -12 -13 3 -7 -13 -11 -49 -10 -29 1 -60 -2 -69 -6 -12 -5 -18 -2 -22 12 -5
19 -15 20 -174 21 -197 2 -331 12 -293 22 14 3 123 8 242 9 l217 4 25 27 c18
20 35 27 61 27 19 0 35 -4 35 -10z m3985 -38 c-3 -3 -11 0 -18 7 -9 10 -8 11
6 5 10 -3 15 -9 12 -12z m-5475 -46 c-1 -17 -2 -18 -9 -6 -5 8 -12 26 -15 40
-7 24 -6 24 8 6 9 -11 16 -29 16 -40z m-304 16 c-17 -16 -18 -16 -5 5 7 12 15
20 18 17 3 -2 -3 -12 -13 -22z m26200 -1022 c5 0 17 12 26 28 l17 27 1 -32 c0
-18 5 -34 10 -34 19 -3 25 -5 45 -16 12 -6 90 -14 175 -18 85 -3 191 -11 235
-16 44 -5 85 -9 93 -9 24 0 3 -17 -30 -24 -46 -9 -254 -25 -367 -27 -63 -1
-104 -7 -125 -18 -37 -19 -110 -20 -151 -1 -41 18 -34 17 -191 24 -137 7 -246
21 -273 35 -18 11 46 19 253 32 213 14 247 29 215 92 -9 16 -3 14 23 -10 19
-18 38 -33 44 -33z m3038 -751 c50 -40 21 -119 -44 -119 -93 0 -91 135 1 139
9 1 28 -8 43 -20z"/>
<path d="M15820 8391 c0 -5 5 -13 10 -16 6 -3 10 -2 10 4 0 5 -4 13 -10 16 -5
3 -10 2 -10 -4z"/>
<path d="M27662 10992 c-10 -3 69 -117 134 -192 12 -14 77 -90 145 -170 68
-80 129 -150 135 -157 6 -6 53 -62 104 -122 52 -61 98 -111 104 -111 21 0 186
155 186 174 0 7 9 96 19 197 28 264 30 298 23 303 -7 4 -64 8 -347 26 -206 13
-275 21 -275 31 0 4 -21 8 -47 7 -27 0 -75 4 -109 9 -33 5 -66 7 -72 5z"/>
<path d="M28558 10912 c-12 -2 -18 -25 -27 -90 -18 -147 -42 -384 -39 -393 3
-10 168 133 356 308 66 61 111 111 108 119 -3 7 0 15 7 18 7 2 1 5 -13 6 -23
1 -23 2 -5 9 12 5 -10 8 -60 8 -126 0 -167 2 -162 11 5 7 -132 10 -165 4z"/>
<path d="M29257 10890 c-54 -10 -81 -27 -95 -60 -11 -25 -9 -46 22 -167 31
-124 180 -705 190 -743 3 -8 9 -37 16 -65 41 -182 133 -540 143 -555 15 -24
79 -60 107 -60 23 0 90 16 125 30 11 5 40 14 65 20 25 6 73 19 108 28 l62 16
0 782 0 782 -352 0 c-194 -1 -370 -4 -391 -8z"/>
<path d="M28970 10803 c-52 -40 -447 -387 -471 -414 -11 -12 -20 -56 -28 -141
-7 -67 -14 -132 -16 -143 -3 -13 3 -25 15 -33 32 -20 25 -59 -14 -82 -30 -19
-40 -38 -110 -223 -101 -264 -139 -368 -134 -372 1 -1 120 -19 263 -39 143
-21 319 -46 390 -56 72 -11 216 -31 320 -45 105 -14 204 -28 221 -30 25 -4 38
1 63 25 22 19 31 35 27 47 -3 10 -57 225 -120 478 -63 253 -131 525 -151 605
-20 80 -42 173 -50 207 -28 128 -57 223 -73 235 -31 26 -84 18 -132 -19z"/>
<path d="M28377 10283 l-75 -68 30 -42 c43 -59 86 -99 97 -87 10 10 36 252 28
260 -3 3 -39 -25 -80 -63z"/>
<path d="M28179 10108 c-57 -51 -198 -176 -314 -278 -320 -281 -345 -304 -345
-321 0 -10 11 -19 28 -22 85 -17 633 -89 638 -85 5 6 52 127 170 438 47 123
53 148 43 167 -6 12 -9 31 -6 42 4 18 -26 61 -102 144 -4 4 -54 -34 -112 -85z"/>
<path d="M27515 9459 c-4 -5 -17 -14 -29 -19 -19 -7 -26 -23 -40 -92 -10 -45
-28 -132 -41 -193 -13 -60 -38 -177 -55 -260 -17 -82 -49 -233 -71 -334 -22
-101 -39 -193 -37 -204 2 -17 28 -28 148 -64 80 -24 188 -57 239 -73 88 -26
96 -27 108 -12 11 15 12 15 13 -4 0 -12 8 -24 18 -27 9 -2 327 -100 706 -217
l690 -212 33 17 c37 20 36 17 63 150 12 55 39 188 61 295 23 107 59 281 80
385 95 455 104 508 91 513 -7 2 -10 8 -6 13 3 5 -2 12 -10 15 -9 3 -16 12 -16
19 0 28 -38 39 -223 66 -105 16 -329 49 -497 73 -168 25 -356 53 -419 62 -108
16 -115 16 -127 0 -11 -15 -49 -109 -129 -321 -13 -33 -43 -112 -68 -175 -24
-63 -57 -150 -73 -192 -15 -42 -30 -75 -32 -73 -3 3 48 146 100 280 11 28 23
61 28 75 5 14 34 93 65 175 71 187 90 243 84 249 -4 4 -70 15 -427 66 -232 34
-219 33 -227 19z"/>
<path d="M29965 9290 c-16 -4 -93 -24 -170 -44 -103 -27 -146 -43 -162 -60
-12 -13 -20 -26 -17 -29 7 -6 -46 -47 -61 -47 -16 0 -37 -71 -70 -230 -14 -69
-37 -174 -50 -235 -60 -276 -175 -823 -177 -850 -2 -24 1 -31 19 -33 18 -3
355 140 666 282 l57 27 0 614 c0 338 -1 615 -2 614 -2 -1 -16 -5 -33 -9z"/>
</g>
</svg>
